#!OML:ASF F:\VICON\USERDATA\INSTALL\rory3\rory3.ASF
:FULLY-SPECIFIED
:DEGREES
1010
root 0.910527 15.4058 4.12499 11.168 -50.78 13.1852
lowerback 5.13496 9.08756 6.49647
upperback 5.20899 12.3281 -4.16519
thorax 4.96871 6.56057 -7.81178
lowerneck -1.50525 -4.92301 -4.80705
upperneck 52.2282 -13.5691 9.78772
head 24.9559 -5.37715 4.16079
rclavicle -1.05753e-013 2.70347e-014
rhumerus -47.0221 54.4559 -130.509
rradius 90.361
rwrist -27.7611
rhand 26.2261 -27.8557
rfingers 7.12502
rthumb 50.2844 -48.9278
lclavicle -1.05753e-013 2.70347e-014
lhumerus -12.3798 -78.4059 92.4935
lradius 100.222
lwrist 29.2234
lhand -3.44778 -23.5322
lfingers 7.12502
lthumb 22.2842 5.20292
rfemur -67.3107 -7.46651 9.41478
rtibia 87.4137
rfoot -12.386 -13.9005
rtoes -27.659
lfemur -57.3018 -22.5062 -28.9681
ltibia 61.7265
lfoot -23.0407 6.7075
ltoes 7.97132
1011
root 0.910119 15.3961 4.11461 11.105 -50.6904 13.2697
lowerback 5.21649 9.03897 6.44616
upperback 5.17043 12.2653 -4.18175
thorax 4.86189 6.52318 -7.82541
lowerneck -1.59968 -4.91507 -4.78331
upperneck 52.2503 -13.6034 9.83642
head 25.0516 -5.38248 4.18086
rclavicle -4.05521e-014 0
rhumerus -47.2924 54.3649 -130.691
rradius 90.4349
rwrist -27.6338
rhand 26.6322 -28.0402
rfingers 7.12502
rthumb 50.6553 -48.9119
lclavicle -4.05521e-014 0
lhumerus -12.2979 -78.3411 92.3562
lradius 100.203
lwrist 29.1516
lhand -3.00624 -24.1009
lfingers 7.12502
lthumb 22.708 4.58297
rfemur -67.3742 -7.46761 9.34227
rtibia 87.503
rfoot -12.6653 -13.7397
rtoes -27.2191
lfemur -57.2929 -22.3446 -29.2357
ltibia 61.6838
lfoot -22.8789 7.37847
ltoes 6.13357
1012
root 0.909576 15.3967 4.11048 10.9837 -50.6503 13.3923
lowerback 5.31962 9.00311 6.38808
upperback 5.07828 12.2209 -4.19435
thorax 4.68631 6.49078 -7.83847
lowerneck -1.51404 -4.87568 -4.7373
upperneck 52.3041 -13.5597 9.81825
head 25.0532 -5.36333 4.17601
rclavicle -1.27222e-013 5.08889e-014
rhumerus -47.9501 54.1613 -131.082
rradius 90.7186
rwrist -27.4589
rhand 26.8037 -28.2123
rfingers 7.12502
rthumb 50.8118 -48.9981
lclavicle -1.27222e-013 5.08889e-014
lhumerus -13.4581 -78.1967 93.4791
lradius 100.264
lwrist 28.8919
lhand -2.36623 -23.6256
lfingers 7.12502
lthumb 23.3221 4.98169
rfemur -67.3369 -7.52193 9.25274
rtibia 87.5301
rfoot -12.9204 -13.5869
rtoes -27.2161
lfemur -57.2377 -22.2877 -29.4286
ltibia 61.6471
lfoot -22.8425 7.547
ltoes 5.82748
1013
root 0.90977 15.3971 4.10194 10.9115 -50.5795 13.44
lowerback 5.46004 8.96871 6.37337
upperback 5.01834 12.1802 -4.2001
thorax 4.53402 6.46361 -7.8701
lowerneck -1.44775 -4.83425 -4.71442
upperneck 52.2868 -13.5153 9.8651
head 24.9975 -5.34158 4.20761
rclavicle 8.82604e-014 2.70347e-014
rhumerus -47.2453 54.3049 -130.801
rradius 90.3582
rwrist -27.7454
rhand 26.8641 -28.3022
rfingers 7.12502
rthumb 50.8668 -49.0576
lclavicle 8.82604e-014 2.70347e-014
lhumerus -14.2979 -78.1382 94.312
lradius 100.441
lwrist 28.7721
lhand -2.02196 -21.8028
lfingers 7.12502
lthumb 23.6523 6.76217
rfemur -67.3071 -7.57085 9.25855
rtibia 87.5412
rfoot -13.0831 -13.5367
rtoes -27.082
lfemur -57.2368 -22.315 -29.412
ltibia 61.6272
lfoot -22.8512 7.21479
ltoes 6.70819
1014
root 0.909259 15.3967 4.09535 10.8282 -50.516 13.5189
lowerback 5.53075 8.94377 6.30662
upperback 4.9831 12.1463 -4.17194
thorax 4.42833 6.43805 -7.82379
lowerneck -1.37295 -4.80803 -4.73346
upperneck 52.2262 -13.4569 9.88222
head 24.8758 -5.32226 4.22638
rclavicle -1.90833e-014 4.45278e-014
rhumerus -47.4708 54.2209 -130.873
rradius 90.4395
rwrist -27.7338
rhand 27.2342 -28.4111
rfingers 7.12502
rthumb 51.2041 -48.9779
lclavicle -1.90833e-014 4.45278e-014
lhumerus -14.8448 -78.1061 94.917
lradius 100.555
lwrist 28.9144
lhand -1.91773 -20.586
lfingers 7.12502
lthumb 23.7523 7.96607
rfemur -67.2692 -7.59206 9.22434
rtibia 87.5323
rfoot -13.1635 -13.5515
rtoes -26.1971
lfemur -57.2149 -22.3322 -29.4518
ltibia 61.6169
lfoot -22.8253 7.17029
ltoes 6.72422
1015
root 0.907098 15.405 4.09911 10.7088 -50.5025 13.66
lowerback 5.39826 8.95136 6.24442
upperback 5.01336 12.1491 -4.15174
thorax 4.51571 6.43933 -7.74362
lowerneck -1.37817 -4.80344 -4.6412
upperneck 52.2095 -13.4128 9.78393
head 24.795 -5.2889 4.1512
rclavicle -5.96354e-014 9.54166e-015
rhumerus -47.6708 54.2084 -130.923
rradius 90.4538
rwrist -27.758
rhand 27.1805 -28.3468
rfingers 7.12502
rthumb 51.1552 -48.9412
lclavicle -5.96354e-014 9.54166e-015
lhumerus -15.1138 -78.0644 95.2659
lradius 100.58
lwrist 29.1137
lhand -1.73626 -20.3272
lfingers 7.12502
lthumb 23.9263 8.20213
rfemur -67.1097 -7.6356 9.07691
rtibia 87.4476
rfoot -13.404 -13.4196
rtoes -24.7621
lfemur -57.1325 -22.4773 -29.4597
ltibia 61.6026
lfoot -22.8481 7.04019
ltoes 7.2477
1016
root 0.907144 15.4136 4.10058 10.6865 -50.4646 13.585
lowerback 5.41096 8.95506 6.41
upperback 5.04982 12.1606 -4.15189
thorax 4.58771 6.4561 -7.8284
lowerneck -1.42966 -4.79526 -4.5811
upperneck 52.1891 -13.4555 9.87486
head 24.8243 -5.285 4.18437
rclavicle -4.05521e-014 2.06736e-014
rhumerus -47.7173 54.1415 -130.921
rradius 90.5322
rwrist -27.6814
rhand 27.315 -28.4211
rfingers 7.12502
rthumb 51.2776 -48.9462
lclavicle -4.05521e-014 2.06736e-014
lhumerus -15.1047 -78.0799 95.2667
lradius 100.599
lwrist 29.2872
lhand -1.65193 -20.2339
lfingers 7.12502
lthumb 24.0072 8.28483
rfemur -66.8734 -7.61735 9.08229
rtibia 87.3373
rfoot -13.7044 -13.2575
rtoes -23.8793
lfemur -57.064 -22.6637 -29.1843
ltibia 61.6143
lfoot -22.9724 6.31893
ltoes 8.90168
1017
root 0.907534 15.421 4.10221 10.8077 -50.4352 13.3486
lowerback 5.40583 8.96735 6.72809
upperback 5.07658 12.1891 -4.15877
thorax 4.69919 6.48991 -7.99683
lowerneck -1.50122 -4.79813 -4.52144
upperneck 52.1589 -13.5013 9.94694
head 24.8456 -5.28267 4.20338
rclavicle 3.97569e-014 -6.20208e-014
rhumerus -47.6415 54.0392 -130.847
rradius 90.6361
rwrist -27.5403
rhand 27.8797 -28.6336
rfingers 7.12502
rthumb 51.791 -48.8626
lclavicle 3.97569e-014 -6.20208e-014
lhumerus -14.9752 -78.2001 95.1184
lradius 100.61
lwrist 29.4435
lhand -1.99072 -19.9964
lfingers 7.12502
lthumb 23.6823 8.5647
rfemur -66.6846 -7.58289 9.25928
rtibia 87.2223
rfoot -13.6755 -13.413
rtoes -24.5417
lfemur -57.0191 -22.7403 -28.9044
ltibia 61.633
lfoot -23.1456 5.6675
ltoes 10.2605
1018
root 0.903533 15.4274 4.11259 10.8017 -50.5172 13.3563
lowerback 5.08513 9.04406 6.89983
upperback 5.20047 12.2864 -4.21541
thorax 5.0844 6.56585 -8.07019
lowerneck -1.67053 -4.83468 -4.3997
upperneck 52.1296 -13.5497 9.8968
head 24.8631 -5.26995 4.13064
rclavicle -9.54166e-014 4.77083e-014
rhumerus -47.3522 54.0497 -130.598
rradius 90.6857
rwrist -27.4831
rhand 27.962 -28.5436
rfingers 7.12502
rthumb 51.8657 -48.7287
lclavicle -9.54166e-014 4.77083e-014
lhumerus -14.2762 -78.3851 94.4304
lradius 100.588
lwrist 29.4516
lhand -2.58826 -19.8861
lfingers 7.12502
lthumb 23.1091 8.74801
rfemur -66.5403 -7.59111 9.23238
rtibia 87.1209
rfoot -13.721 -13.4754
rtoes -24.9792
lfemur -56.9111 -22.7193 -28.9786
ltibia 61.6254
lfoot -23.2716 5.65525
ltoes 10.533
1019
root 0.89962 15.425 4.11308 10.664 -50.5641 13.5432
lowerback 4.84914 9.10942 6.83081
upperback 5.30764 12.3629 -4.25365
thorax 5.34109 6.61409 -8.01578
lowerneck -1.68942 -4.86375 -4.37164
upperneck 51.9978 -13.5899 9.96033
head 24.7318 -5.26862 4.13969
rclavicle -1.35174e-014 -6.67916e-014
rhumerus -47.2185 54.0262 -130.4
rradius 90.8028
rwrist -27.4152
rhand 28.0883 -28.7108
rfingers 7.12502
rthumb 51.9803 -48.8281
lclavicle -1.35174e-014 -6.67916e-014
lhumerus -13.5559 -78.5336 93.7314
lradius 100.574
lwrist 29.1557
lhand -3.30087 -20.2766
lfingers 7.12502
lthumb 22.4252 8.44162
rfemur -66.4781 -7.54323 9.04641
rtibia 87.0972
rfoot -14.1246 -13.2208
rtoes -24.1004
lfemur -56.877 -22.6683 -29.1525
ltibia 61.6269
lfoot -23.2966 5.74128
ltoes 10.5757
1020
root 0.898921 15.4176 4.09846 10.6492 -50.4241 13.6291
lowerback 4.84249 9.07474 6.74718
upperback 5.2972 12.3135 -4.24305
thorax 5.30119 6.58305 -7.96463
lowerneck -1.548 -4.85491 -4.39638
upperneck 51.8168 -13.55 10.0413
head 24.4605 -5.2522 4.18117
rclavicle 7.4743e-014 -4.45278e-014
rhumerus -47.3037 54.0248 -130.395
rradius 90.923
rwrist -27.5036
rhand 28.1804 -28.9417
rfingers 7.12502
rthumb 52.0638 -49.0094
lclavicle 7.4743e-014 -4.45278e-014
lhumerus -13.2514 -78.6074 93.4129
lradius 100.619
lwrist 28.9897
lhand -3.77187 -20.4089
lfingers 7.12502
lthumb 21.973 8.36312
rfemur -66.5657 -7.58765 9.06465
rtibia 87.1293
rfoot -14.153 -13.3298
rtoes -24.3454
lfemur -56.9927 -22.695 -29.1692
ltibia 61.6335
lfoot -23.2417 5.70333
ltoes 10.6283
1021
root 0.898798 15.415 4.08308 10.5316 -50.2936 13.7297
lowerback 4.9815 9.00818 6.70204
upperback 5.2919 12.2278 -4.23552
thorax 5.18832 6.53403 -7.96475
lowerneck -1.4606 -4.84779 -4.42495
upperneck 51.7381 -13.4905 10.0135
head 24.3049 -5.23753 4.17191
rclavicle 1.35174e-014 -9.54166e-015
rhumerus -47.6164 54.0561 -130.603
rradius 91.0244
rwrist -27.5419
rhand 27.6901 -28.7554
rfingers 7.12502
rthumb 51.6187 -49.0848
lclavicle 1.35174e-014 -9.54166e-015
lhumerus -12.9507 -78.5419 93.1315
lradius 100.633
lwrist 29.2146
lhand -3.59396 -20.1846
lfingers 7.12502
lthumb 22.1438 8.56722
rfemur -66.5876 -7.69615 9.12427
rtibia 87.1658
rfoot -13.8977 -13.6558
rtoes -25.3227
lfemur -56.9842 -22.7106 -29.2161
ltibia 61.61
lfoot -23.1857 5.56068
ltoes 10.8784
